<svg xmlns="http://www.w3.org/2000/svg" enable-background="new 0 0 64 64" viewBox="0 0 64 64">
    <path fill="#000"
        d="M44.69,32c0-12.32-10.02-22.35-22.34-22.35C10.03,9.65,0,19.68,0,32c0,12.32,10.03,22.35,22.35,22.35
        C34.66,54.35,44.69,44.32,44.69,32z M8.9,37.78c-3.18,0-5.77-2.59-5.77-5.78c0-3.19,2.59-5.78,5.77-5.78
        c3.19,0,5.78,2.59,5.78,5.78C14.69,35.19,12.09,37.78,8.9,37.78z M22.78,51.65c-3.19,0-5.78-2.59-5.78-5.77
        c0-3.19,2.59-5.78,5.78-5.78c3.19,0,5.78,2.59,5.78,5.78C28.56,49.06,25.97,51.65,22.78,51.65z M18.95,32
        c0-1.87,1.52-3.39,3.39-3.39c1.87,0,3.39,1.52,3.39,3.39s-1.52,3.39-3.39,3.39C20.48,35.39,18.95,33.87,18.95,32z M22.78,23.91
        c-3.19,0-5.78-2.59-5.78-5.78c0-3.19,2.59-5.78,5.78-5.78c3.19,0,5.78,2.59,5.78,5.78C28.56,21.31,25.97,23.91,22.78,23.91z
        M30.87,32c0-3.19,2.59-5.78,5.78-5.78c3.19,0,5.78,2.59,5.78,5.78c0,3.19-2.59,5.78-5.78,5.78C33.46,37.78,30.87,35.19,30.87,32z" />
    <path fill="#000"
        d="M42.5,44.83l-0.06,0.09c-2.59,4.03-6.28,7.16-10.68,9.05l0.08,0.38H64v-9.52H42.5z" />
    <circle cx="22.35" cy="32" r="1.83" fill="#000" />
</svg>