<svg xmlns="http://www.w3.org/2000/svg" enable-background="new 0 0 32 32" viewBox="0 0 32 32"
    fill="#000">
    <path
        d="M29.969,16c0-0.43,0.23-1,0.45-1.56c0.38-0.94,0.81-2.01,0.44-3.09c-0.37-1.1-1.39-1.73-2.28-2.29c-0.51-0.31-1.04-0.64-1.29-0.96c-0.25-0.33-0.41-0.89-0.57-1.48c-0.28-0.98-0.59-2.1-1.55-2.77c-0.94-0.65-2.12-0.59-3.17-0.54c-0.62,0.03-1.26,0.06-1.69-0.08c-0.4-0.12-0.86-0.48-1.34-0.85C18.14,1.73,17.2,1,16,1s-2.14,0.73-2.97,1.38c-0.48,0.37-0.94,0.73-1.34,0.85c-0.43,0.14-1.07,0.11-1.69,0.08c-1.05-0.05-2.23-0.11-3.17,0.54c-0.96,0.67-1.27,1.79-1.55,2.77c-0.16,0.59-0.32,1.15-0.57,1.48c-0.25,0.32-0.78,0.65-1.28,0.96c-0.9,0.56-1.92,1.19-2.29,2.29c-0.37,1.08,0.06,2.15,0.44,3.09c0.22,0.56,0.45,1.13,0.45,1.56s-0.23,1-0.45,1.56c-0.38,0.94-0.81,2.01-0.44,3.09c0.37,1.1,1.39,1.73,2.28,2.29c0.51,0.31,1.04,0.64,1.29,0.96c0.25,0.33,0.41,0.89,0.57,1.48c0.28,0.98,0.59,2.1,1.55,2.77c0.94,0.65,2.12,0.59,3.17,0.54c0.62-0.03,1.26-0.06,1.69,0.08c0.4,0.12,0.86,0.48,1.34,0.85C13.86,30.27,14.8,31,16,31s2.14-0.73,2.97-1.38c0.48-0.37,0.94-0.73,1.34-0.85c0.43-0.14,1.07-0.11,1.69-0.08c1.05,0.05,2.23,0.11,3.17-0.54c0.96-0.67,1.27-1.79,1.55-2.77c0.16-0.59,0.32-1.15,0.57-1.48c0.25-0.32,0.78-0.65,1.28-0.96c0.9-0.56,1.92-1.19,2.29-2.29c0.37-1.08-0.06-2.15-0.44-3.09C30.199,17,29.969,16.43,29.969,16z M12,19c0,0.44-0.29,0.83-0.71,0.96C11.19,19.99,11.1,20,11,20c-0.33,0-0.64-0.16-0.83-0.45l-2.17-3.25V19c0,0.55-0.45,1-1,1s-1-0.45-1-1v-6c0-0.44,0.29-0.83,0.71-0.96c0.42-0.13,0.88,0.04,1.12,0.41l2.17,3.25V13c0-0.55,0.45-1,1-1s1,0.45,1,1V19z M17,15c0.55,0,1,0.45,1,1s-0.45,1-1,1h-2v1h2c0.55,0,1,0.45,1,1s-0.45,1-1,1h-3c-0.55,0-1-0.45-1-1v-6c0-0.55,0.45-1,1-1h3c0.55,0,1,0.45,1,1s-0.45,1-1,1h-2v1H17z M24.989,19.16c-0.08,0.45-0.44,0.79-0.89,0.84h-0.1c-0.41,0-0.79-0.26-0.94-0.65l-0.56-1.5l-0.56,1.5c-0.16,0.43-0.59,0.69-1.04,0.65c-0.45-0.05-0.81-0.39-0.89-0.84l-1-6c-0.09-0.54,0.28-1.06,0.83-1.15c0.54-0.09,1.06,0.28,1.15,0.83l0.38,2.32l0.19-0.51c0.15-0.39,0.52-0.65,0.94-0.65c0.42,0,0.79,0.26,0.94,0.65l0.19,0.51l0.38-2.32c0.09-0.55,0.61-0.92,1.15-0.83c0.55,0.09,0.92,0.61,0.83,1.15L24.989,19.16z" />
</svg>